<svg xmlns:xlink="http://www.w3.org/1999/xlink" xmlns="http://www.w3.org/2000/svg" focusable="false" width="20"  height="20" ><defs><symbol id="icon-search" viewBox="0 0 20 20" fill="#111111">
        <path d="M12.6 0c-2 0-3.8.7-5.3 2.2-2.6 2.6-3 6.7-.8 9.6L.3 18c-.4.4-.4 1 0 1.5l.2.2c.4.4 1 .4 1.5 0l6.2-6.2c1.3 1 2.8 1.4 4.3 1.4 2 0 3.8-1 5.3-2.4 3-3 2.7-8 .3-10.2C16 .2 14.6 0 12.7 0zM9 11c-1-1-1.4-2.2-1.4-3.5C7.6 6.2 8 5 9 4c1-1 2.2-1.5 3.6-1.5S15 3 16 4c1 1 1.6 2.2 1.6 3.5 0 1.3-.5 2.6-1.5 3.5-1 1-2 1.4-3.3 1.4-1.4 0-2.7-.4-3.7-1.4z" fill="#111111"></path>
    </symbol></defs>
                            <use xlink:href="#icon-search"></use>
                        </svg>